<?xml version="1.0" standalone="no"?>
<svg xmlns:xlink="http://www.w3.org/1999/xlink" id="wave" style="transform:rotate(180deg); transition: 0.3s" viewBox="0 0 1440 490" version="1.1" xmlns="http://www.w3.org/2000/svg"><defs><linearGradient id="sw-gradient-0" x1="0" x2="0" y1="1" y2="0"><stop stop-color="rgba(97.833, 184.858, 107.685, 1)" offset="0%"/><stop stop-color="rgba(31.816, 168.921, 83.915, 1)" offset="100%"/></linearGradient></defs><path style="transform:translate(0, 0px); opacity:1" fill="url(#sw-gradient-0)" d="M0,147L34.3,147C68.6,147,137,147,206,179.7C274.3,212,343,278,411,302.2C480,327,549,310,617,253.2C685.7,196,754,98,823,73.5C891.4,49,960,98,1029,147C1097.1,196,1166,245,1234,236.8C1302.9,229,1371,163,1440,187.8C1508.6,212,1577,327,1646,367.5C1714.3,408,1783,376,1851,359.3C1920,343,1989,343,2057,343C2125.7,343,2194,343,2263,302.2C2331.4,261,2400,180,2469,147C2537.1,114,2606,131,2674,130.7C2742.9,131,2811,114,2880,130.7C2948.6,147,3017,196,3086,236.8C3154.3,278,3223,310,3291,343C3360,376,3429,408,3497,416.5C3565.7,425,3634,408,3703,375.7C3771.4,343,3840,294,3909,294C3977.1,294,4046,343,4114,367.5C4182.9,392,4251,392,4320,359.3C4388.6,327,4457,261,4526,228.7C4594.3,196,4663,196,4731,171.5C4800,147,4869,98,4903,73.5L4937.1,49L4937.1,490L4902.9,490C4868.6,490,4800,490,4731,490C4662.9,490,4594,490,4526,490C4457.1,490,4389,490,4320,490C4251.4,490,4183,490,4114,490C4045.7,490,3977,490,3909,490C3840,490,3771,490,3703,490C3634.3,490,3566,490,3497,490C3428.6,490,3360,490,3291,490C3222.9,490,3154,490,3086,490C3017.1,490,2949,490,2880,490C2811.4,490,2743,490,2674,490C2605.7,490,2537,490,2469,490C2400,490,2331,490,2263,490C2194.3,490,2126,490,2057,490C1988.6,490,1920,490,1851,490C1782.9,490,1714,490,1646,490C1577.1,490,1509,490,1440,490C1371.4,490,1303,490,1234,490C1165.7,490,1097,490,1029,490C960,490,891,490,823,490C754.3,490,686,490,617,490C548.6,490,480,490,411,490C342.9,490,274,490,206,490C137.1,490,69,490,34,490L0,490Z"/></svg>