<?xml version="1.0" standalone="no"?>
<svg xmlns:xlink="http://www.w3.org/1999/xlink" id="wave" style="transform:rotate(0deg); transition: 0.3s" viewBox="0 0 1440 490" version="1.1" xmlns="http://www.w3.org/2000/svg"><defs><linearGradient id="sw-gradient-0" x1="0" x2="0" y1="1" y2="0"><stop stop-color="rgba(97.833, 184.858, 107.685, 1)" offset="0%"/><stop stop-color="rgba(5.181, 129.077, 11.863, 1)" offset="100%"/></linearGradient></defs><path style="transform:translate(0, 0px); opacity:1" fill="url(#sw-gradient-0)" d="M0,147L48,163.3C96,180,192,212,288,204.2C384,196,480,147,576,106.2C672,65,768,33,864,81.7C960,131,1056,261,1152,277.7C1248,294,1344,196,1440,179.7C1536,163,1632,229,1728,285.8C1824,343,1920,392,2016,383.8C2112,376,2208,310,2304,302.2C2400,294,2496,343,2592,351.2C2688,359,2784,327,2880,334.8C2976,343,3072,392,3168,367.5C3264,343,3360,245,3456,245C3552,245,3648,343,3744,343C3840,343,3936,245,4032,220.5C4128,196,4224,245,4320,294C4416,343,4512,392,4608,367.5C4704,343,4800,245,4896,228.7C4992,212,5088,278,5184,261.3C5280,245,5376,147,5472,155.2C5568,163,5664,278,5760,326.7C5856,376,5952,359,6048,359.3C6144,359,6240,376,6336,334.8C6432,294,6528,196,6624,187.8C6720,180,6816,261,6864,302.2L6912,343L6912,490L6864,490C6816,490,6720,490,6624,490C6528,490,6432,490,6336,490C6240,490,6144,490,6048,490C5952,490,5856,490,5760,490C5664,490,5568,490,5472,490C5376,490,5280,490,5184,490C5088,490,4992,490,4896,490C4800,490,4704,490,4608,490C4512,490,4416,490,4320,490C4224,490,4128,490,4032,490C3936,490,3840,490,3744,490C3648,490,3552,490,3456,490C3360,490,3264,490,3168,490C3072,490,2976,490,2880,490C2784,490,2688,490,2592,490C2496,490,2400,490,2304,490C2208,490,2112,490,2016,490C1920,490,1824,490,1728,490C1632,490,1536,490,1440,490C1344,490,1248,490,1152,490C1056,490,960,490,864,490C768,490,672,490,576,490C480,490,384,490,288,490C192,490,96,490,48,490L0,490Z"/></svg>